<svg id="Layer_1" data-name="Layer 1" xmlns="http://www.w3.org/2000/svg" viewBox="0 0 32 32"><defs><style>.cls-1{fill:#9bff74;}.cls-2{fill:#033f00;}</style></defs><circle class="cls-1" cx="16" cy="16" r="16"/><path class="cls-2" d="M5.22,23.78v-1h0a2.48,2.48,0,0,0,.25.62.81.81,0,0,0,.69.42.65.65,0,0,0,.48-.19.69.69,0,0,0,.18-.49.89.89,0,0,0-.15-.49,1.23,1.23,0,0,0-.2-.19,4.38,4.38,0,0,0-.41-.22A3.17,3.17,0,0,1,5.76,22a1.16,1.16,0,0,1-.2-.16.81.81,0,0,1-.22-.58.93.93,0,0,1,.09-.4.86.86,0,0,1,.23-.33.92.92,0,0,1,.63-.24.78.78,0,0,1,.22,0l.26.09.17.07H7c.06,0,.1,0,.12-.13H7.2l0,1H7.16c0-.16-.08-.28-.12-.37a1.63,1.63,0,0,0-.11-.23,1.1,1.1,0,0,0-.27-.29.67.67,0,0,0-.34-.09.55.55,0,0,0-.45.19.66.66,0,0,0-.14.39c0,.28.18.5.54.67l.35.17a1.7,1.7,0,0,1,.59.43,1,1,0,0,1,.2.61,1.12,1.12,0,0,1-.09.44,1.07,1.07,0,0,1-.39.45,1.24,1.24,0,0,1-.62.16,1.68,1.68,0,0,1-.62-.13l-.18-.08H5.44a.16.16,0,0,0-.16.12Z"/><path class="cls-2" d="M9.31,20.37v.06l-.23,0a.45.45,0,0,0-.27.32,2.26,2.26,0,0,0,0,.43v1.41a3.2,3.2,0,0,0,0,.5.92.92,0,0,0,.11.29.7.7,0,0,0,.29.28,1,1,0,0,0,.45.09,1.42,1.42,0,0,0,.5-.08,1.12,1.12,0,0,0,.39-.21.83.83,0,0,0,.15-.19.91.91,0,0,0,.06-.26c0-.07,0-.24,0-.49v-1.4a1.74,1.74,0,0,0,0-.38.43.43,0,0,0-.11-.2.42.42,0,0,0-.16-.11l-.23,0v-.06h1.15v.06l-.23,0a.42.42,0,0,0-.26.31,1.74,1.74,0,0,0,0,.38v1.58a2.15,2.15,0,0,1,0,.52.69.69,0,0,1-.22.3,1.54,1.54,0,0,1-1,.32,1.55,1.55,0,0,1-1.05-.3.84.84,0,0,1-.26-.5c0-.08,0-.21,0-.4V21.16a1.74,1.74,0,0,0,0-.38.36.36,0,0,0-.11-.2A.39.39,0,0,0,8,20.47l-.24,0v-.06Z"/><path class="cls-2" d="M15.93,20.43l-.23,0a.54.54,0,0,0-.16.1.83.83,0,0,0-.08.12.62.62,0,0,0,0,.16,2.91,2.91,0,0,0,0,.31V23a1.81,1.81,0,0,0,0,.38.42.42,0,0,0,.1.2.53.53,0,0,0,.39.14v.06h-1.6v-.06a.75.75,0,0,0,.24,0,.36.36,0,0,0,.15-.1.39.39,0,0,0,.11-.21,1.64,1.64,0,0,0,0-.37V20.77l-1.29,3h-.05l-1.28-3V23a2,2,0,0,0,0,.38.49.49,0,0,0,.11.2.39.39,0,0,0,.16.1.53.53,0,0,0,.23,0v.06H11.61v-.06a.53.53,0,0,0,.23,0,.39.39,0,0,0,.16-.1.46.46,0,0,0,.1-.21,1.64,1.64,0,0,0,0-.37V20.94a.77.77,0,0,0-.06-.27.4.4,0,0,0-.17-.17.77.77,0,0,0-.29-.07v-.06h1.08l1.09,2.68,1.12-2.68h1Z"/><path class="cls-2" d="M20.5,20.43l-.23,0a.7.7,0,0,0-.16.1.83.83,0,0,0-.08.12.62.62,0,0,0,0,.16,2.91,2.91,0,0,0,0,.31V23a1.81,1.81,0,0,0,0,.38.42.42,0,0,0,.1.2.56.56,0,0,0,.39.14v.06H18.9v-.06a.75.75,0,0,0,.24,0,.39.39,0,0,0,.16-.1.46.46,0,0,0,.1-.21,1.64,1.64,0,0,0,0-.37V20.77l-1.29,3h-.05l-1.28-3V23a1.81,1.81,0,0,0,0,.38.38.38,0,0,0,.1.2.39.39,0,0,0,.16.1.53.53,0,0,0,.23,0v.06H16.18v-.06a.53.53,0,0,0,.23,0,.39.39,0,0,0,.16-.1.47.47,0,0,0,.11-.21,3,3,0,0,0,0-.37V20.94a.77.77,0,0,0-.06-.27.4.4,0,0,0-.17-.17.77.77,0,0,0-.29-.07v-.06h1.09l1.08,2.68,1.12-2.68h1Z"/><path class="cls-2" d="M23.44,20.37l0,.83h-.05a1.44,1.44,0,0,0-.11-.35.71.71,0,0,0-.22-.24.65.65,0,0,0-.28-.12,1.61,1.61,0,0,0-.42,0h-.58V22H22a1.5,1.5,0,0,0,.35,0,.35.35,0,0,0,.18-.1.42.42,0,0,0,.11-.18,2,2,0,0,0,.06-.29h0V22.7h-.05a1.61,1.61,0,0,0-.07-.31.56.56,0,0,0-.12-.2.37.37,0,0,0-.2-.12.87.87,0,0,0-.3,0h-.15v.57c0,.23,0,.4,0,.5a.88.88,0,0,0,.07.27.55.55,0,0,0,.26.26,1,1,0,0,0,.46.08,1.43,1.43,0,0,0,.5-.07.68.68,0,0,0,.33-.24,1,1,0,0,0,.15-.24,3.72,3.72,0,0,0,.1-.37h.06l0,1h-3v-.06a.5.5,0,0,0,.23,0,.39.39,0,0,0,.16-.1.47.47,0,0,0,.11-.21,1.64,1.64,0,0,0,0-.37V21.16a1.74,1.74,0,0,0,0-.38.43.43,0,0,0-.11-.2.36.36,0,0,0-.16-.11l-.23,0v-.06Z"/><path class="cls-2" d="M25,22.12V23a1.64,1.64,0,0,0,0,.37.46.46,0,0,0,.1.21.39.39,0,0,0,.16.1.73.73,0,0,0,.23,0v.06h-1.6v-.06a.75.75,0,0,0,.24,0,.39.39,0,0,0,.16-.1.47.47,0,0,0,.1-.2,1.81,1.81,0,0,0,0-.38V21.16a1.74,1.74,0,0,0,0-.38.42.42,0,0,0-.26-.31,1.19,1.19,0,0,0-.24,0v-.06h1.61a1.88,1.88,0,0,1,.61.1.88.88,0,0,1,.38.3.81.81,0,0,1,.14.46.77.77,0,0,1-.3.63.64.64,0,0,1-.2.11l-.29.09a.55.55,0,0,1,.22.13.47.47,0,0,1,.11.13c0,.05.08.15.14.28.15.3.26.53.34.67s.14.24.19.31a.35.35,0,0,0,.12.1.38.38,0,0,0,.16,0v.06h-.83l-.08-.17-.17-.4c-.11-.24-.21-.45-.32-.64a1.39,1.39,0,0,0-.29-.37.51.51,0,0,0-.15-.07l-.19,0Zm0-.06h.09a2.34,2.34,0,0,0,.45,0,.51.51,0,0,0,.25-.15.82.82,0,0,0,.26-.62.94.94,0,0,0-.07-.37.93.93,0,0,0-.22-.29.64.64,0,0,0-.25-.11,1.44,1.44,0,0,0-.41,0H25Z"/><path class="cls-2" d="M12.49,5.89V11h5.87V5.89h1.58V18H18.36V12.33H12.49V18H10.92V5.89Z"/></svg>